<svg xmlns="http://www.w3.org/2000/svg" width="760" height="624" viewBox="0 0 760 624" font-family="-apple-system,Segoe UI,Roboto,Helvetica,Arial,sans-serif">
  <defs>
    <style>
      .title{font-size:22px;font-weight:700;fill:#0f172a}.sub{font-size:13px;fill:#475569}
      .tier{font-size:12px;font-weight:600;fill:#64748b;letter-spacing:.04em}
      .ph{font-size:14px;font-weight:700}.nm{font-size:11.5px}.lg{font-size:12px;fill:#334155}
      .done{fill:#0f766e}.prog{fill:#b45309}.plan{fill:#475569}.new{font-size:11px;font-weight:700;fill:#0f766e}
    </style>
  </defs>
  <rect x="0" y="0" width="760" height="624" fill="#ffffff"/>
  <text class="title" x="32" y="42">Lizard - roadmap status</text>
  <text class="sub" x="32" y="64">A C89 Scheme with a trusted dependent-type kernel and a proof-carrying CAS · 8 of 10 phases complete</text>
  <text class="tier" x="32" y="100">COMPLETE - FOUNDATION</text>
  <g>
    <rect x="32"  y="110" width="160" height="50" rx="9" fill="#ccfbf1" stroke="#0f766e" stroke-width="1.2"/>
    <text class="ph done" x="112" y="133" text-anchor="middle">Phase 0</text>
    <text class="nm done" x="112" y="150" text-anchor="middle">Hygiene &amp; honesty</text>
    <rect x="204" y="110" width="160" height="50" rx="9" fill="#ccfbf1" stroke="#0f766e" stroke-width="1.2"/>
    <text class="ph done" x="284" y="133" text-anchor="middle">Phase 1</text>
    <text class="nm done" x="284" y="150" text-anchor="middle">Spine &amp; diagnostics</text>
    <rect x="376" y="110" width="160" height="50" rx="9" fill="#ccfbf1" stroke="#0f766e" stroke-width="1.2"/>
    <text class="ph done" x="456" y="133" text-anchor="middle">Phase 2</text>
    <text class="nm done" x="456" y="150" text-anchor="middle">Representation split</text>
    <rect x="548" y="110" width="160" height="50" rx="9" fill="#ccfbf1" stroke="#0f766e" stroke-width="1.2"/>
    <text class="ph done" x="628" y="133" text-anchor="middle">Phase 3</text>
    <text class="nm done" x="628" y="150" text-anchor="middle">Modules</text>
  </g>
  <text class="tier" x="32" y="192">COMPLETE - LANGUAGE, PROOFS &amp; CAS</text>
  <g>
    <rect x="32"  y="202" width="208" height="50" rx="9" fill="#ccfbf1" stroke="#0f766e" stroke-width="1.2"/>
    <text class="ph done" x="136" y="225" text-anchor="middle">Phase 4</text>
    <text class="nm done" x="136" y="242" text-anchor="middle">Hygienic macros + contracts</text>
    <rect x="252" y="202" width="208" height="50" rx="9" fill="#ccfbf1" stroke="#0f766e" stroke-width="1.2"/>
    <text class="ph done" x="356" y="225" text-anchor="middle">Phase 7</text>
    <text class="nm done" x="356" y="242" text-anchor="middle">Elaborator / proof mode</text>
    <rect x="472" y="202" width="236" height="50" rx="9" fill="#ccfbf1" stroke="#0f766e" stroke-width="1.2"/>
    <text class="ph done" x="590" y="225" text-anchor="middle">Phase 8</text>
    <text class="nm done" x="590" y="242" text-anchor="middle">CAS certificates: d/dx + integral</text>
  </g>
  <text class="tier" x="32" y="284">COMPLETE - RUNTIME</text>
  <g>
    <rect x="32" y="294" width="676" height="54" rx="9" fill="#ccfbf1" stroke="#0f766e" stroke-width="1.6"/>
    <text class="ph done" x="44" y="318">Phase 5 - Object-level GC</text>
    <text class="nm done" x="44" y="337">per-object conservative, non-moving mark &amp; sweep · reclaims into free lists · addresses stable · valgrind-clean</text>
  </g>
  <text class="tier" x="32" y="384">IN PROGRESS</text>
  <g>
    <rect x="32" y="394" width="676" height="58" rx="9" fill="#fef3c7" stroke="#b45309" stroke-width="1.6"/>
    <text class="ph prog" x="44" y="418">Phase 6 - Persistent data + concurrency</text>
    <text class="nm prog" x="44" y="438">Immutable half DONE: persistent vector (trie) + HAMT maps &amp; sets, all with structural sharing · threads/STM next</text>
  </g>
  <text class="tier" x="32" y="484">PLANNED</text>
  <g>
    <rect x="32" y="494" width="676" height="54" rx="9" fill="#f1f5f9" stroke="#64748b" stroke-width="1.2" stroke-dasharray="5 4"/>
    <text class="ph plan" x="370" y="518" text-anchor="middle">Phase 9 - Native compiler</text>
    <text class="nm plan" x="370" y="536" text-anchor="middle">the largest remaining effort</text>
  </g>
  <g transform="translate(32,584)">
    <rect x="0"   y="0" width="14" height="14" rx="3" fill="#ccfbf1" stroke="#0f766e"/>
    <text class="lg" x="20" y="11">Complete (8)</text>
    <rect x="150" y="0" width="14" height="14" rx="3" fill="#fef3c7" stroke="#b45309"/>
    <text class="lg" x="170" y="11">In progress (1)</text>
    <rect x="300" y="0" width="14" height="14" rx="3" fill="#f1f5f9" stroke="#64748b" stroke-dasharray="5 4"/>
    <text class="lg" x="320" y="11">Planned (1)</text>
    <text class="lg" x="446" y="11" fill="#64748b">+ exact rationals · object GC · persistent vector · verified integral</text>
  </g>
</svg>
