<svg xmlns="http://www.w3.org/2000/svg" width="780" height="640" viewBox="0 0 780 640" font-family="-apple-system,Segoe UI,Roboto,Helvetica,Arial,sans-serif">
  <defs>
    <style>
      .title{font-size:22px;font-weight:700;fill:#0f172a}.sub{font-size:13px;fill:#475569}
      .tier{font-size:12px;font-weight:600;fill:#64748b;letter-spacing:.04em}
      .ph{font-size:14px;font-weight:700}.nm{font-size:11.5px}.lg{font-size:12px;fill:#334155}
      .sm{font-size:10.5px}
      .done{fill:#0f766e}.prog{fill:#b45309}.plan{fill:#475569}.new{font-size:10.5px;font-weight:700;fill:#0f766e}
    </style>
  </defs>
  <rect x="0" y="0" width="780" height="640" fill="#ffffff"/>
  <text class="title" x="32" y="42">Lizard - roadmap status</text>
  <text class="sub" x="32" y="64">A C89 Scheme with a trusted dependent-type kernel and a proof-carrying CAS · 10 of 11 phases complete</text>

  <text class="tier" x="32" y="100">COMPLETE - FOUNDATION</text>
  <g>
    <rect x="32"  y="110" width="160" height="50" rx="9" fill="#ccfbf1" stroke="#0f766e" stroke-width="1.2"/>
    <text class="ph done" x="112" y="133" text-anchor="middle">Phase 0</text>
    <text class="nm done" x="112" y="150" text-anchor="middle">Hygiene &amp; honesty</text>
    <rect x="204" y="110" width="160" height="50" rx="9" fill="#ccfbf1" stroke="#0f766e" stroke-width="1.2"/>
    <text class="ph done" x="284" y="133" text-anchor="middle">Phase 1</text>
    <text class="nm done" x="284" y="150" text-anchor="middle">Spine &amp; diagnostics</text>
    <rect x="376" y="110" width="160" height="50" rx="9" fill="#ccfbf1" stroke="#0f766e" stroke-width="1.2"/>
    <text class="ph done" x="456" y="133" text-anchor="middle">Phase 2</text>
    <text class="nm done" x="456" y="150" text-anchor="middle">Representation split</text>
    <rect x="548" y="110" width="160" height="50" rx="9" fill="#ccfbf1" stroke="#0f766e" stroke-width="1.2"/>
    <text class="ph done" x="628" y="133" text-anchor="middle">Phase 3</text>
    <text class="nm done" x="628" y="150" text-anchor="middle">Modules</text>
  </g>

  <text class="tier" x="32" y="192">COMPLETE - LANGUAGE, PROOFS &amp; CAS</text>
  <g>
    <rect x="32"  y="202" width="208" height="50" rx="9" fill="#ccfbf1" stroke="#0f766e" stroke-width="1.2"/>
    <text class="ph done" x="136" y="225" text-anchor="middle">Phase 4</text>
    <text class="nm done" x="136" y="242" text-anchor="middle">Hygienic macros + contracts</text>
    <rect x="252" y="202" width="208" height="50" rx="9" fill="#ccfbf1" stroke="#0f766e" stroke-width="1.2"/>
    <text class="ph done" x="356" y="225" text-anchor="middle">Phase 7</text>
    <text class="nm done" x="356" y="242" text-anchor="middle">Elaborator / proof mode</text>
    <rect x="472" y="202" width="236" height="50" rx="9" fill="#ccfbf1" stroke="#0f766e" stroke-width="1.2"/>
    <text class="ph done" x="590" y="225" text-anchor="middle">Phase 8</text>
    <text class="nm done" x="590" y="242" text-anchor="middle">CAS certificates: d/dx + integral</text>
  </g>

  <text class="tier" x="32" y="284">COMPLETE - RUNTIME</text>
  <g>
    <rect x="32" y="294" width="676" height="50" rx="9" fill="#ccfbf1" stroke="#0f766e" stroke-width="1.6"/>
    <text class="ph done" x="44" y="316">Phase 5 - Object-level GC</text>
    <text class="nm done" x="44" y="334">per-object conservative, non-moving mark &amp; sweep · reclaims into free lists · addresses stable · valgrind-clean</text>
  </g>

  <text class="tier" x="32" y="376">COMPLETE - COMPILER &amp; GRAPH MACHINE</text>
  <g>
    <rect x="32" y="386" width="330" height="78" rx="9" fill="#ccfbf1" stroke="#0f766e" stroke-width="1.6"/>
    <text class="ph done" x="44" y="408">Phase 9 - Native compiler</text>
    <text class="sm done" x="44" y="425">Scheme subset compiled to C, reusing the</text>
    <text class="sm done" x="44" y="439">runtime · full closures · proper TCO (trampoline)</text>
    <text class="new" x="44" y="456">differentially tested vs interpreter: 10/10 identical</text>

    <rect x="378" y="386" width="330" height="78" rx="9" fill="#ccfbf1" stroke="#0f766e" stroke-width="1.6"/>
    <text class="ph done" x="390" y="408">Phase 10 - Interaction nets</text>
    <text class="sm done" x="390" y="425">the AST as a GRAPH: optimal reduction via</text>
    <text class="sm done" x="390" y="439">interaction combinators · sharing (DUP) · exact bignums</text>
    <text class="new" x="390" y="456">beta + Church numerals · linear-cost sharing meter</text>
  </g>

  <text class="tier" x="32" y="496">IN PROGRESS</text>
  <g>
    <rect x="32" y="506" width="676" height="56" rx="9" fill="#fef3c7" stroke="#b45309" stroke-width="1.6"/>
    <text class="ph prog" x="44" y="528">Phase 6 - Persistent data + concurrency</text>
    <text class="nm prog" x="44" y="547">Immutable half DONE: persistent vector (trie) + HAMT maps &amp; sets, structural sharing · cooperative concurrency next</text>
  </g>

  <g transform="translate(32,596)">
    <rect x="0"   y="0" width="14" height="14" rx="3" fill="#ccfbf1" stroke="#0f766e"/>
    <text class="lg" x="20" y="11">Complete (10)</text>
    <rect x="156" y="0" width="14" height="14" rx="3" fill="#fef3c7" stroke="#b45309"/>
    <text class="lg" x="176" y="11">In progress (1)</text>
    <text class="lg" x="312" y="11" fill="#64748b">+ exact rationals · inexact reals · GC · persistent vector · verified d/dx &amp; integral · native compiler · syntax graph</text>
  </g>
</svg>
